<svg xmlns="http://www.w3.org/2000/svg" xml:space="preserve" style="enable-background:new 0 0 77.2 76.9" viewBox="0 0 77.2 76.9"><path d="M38.5 76.6c-6.9 0-13.7-1.9-19.6-5.4l-2-1.2V59.9H6.8l-1.2-2C2.1 52 .3 45.3.3 38.4.3 17.3 17.5.1 38.6.1s38.3 17.2 38.3 38.3-17.3 38.2-38.4 38.2zM25.1 65.3c4.1 2.1 8.7 3.1 13.4 3.1 16.6 0 30.1-13.5 30.1-30.1S55.1 8.2 38.5 8.2 8.4 21.8 8.4 38.4c0 4.7 1.1 9.3 3.1 13.4h5.4V38.4c0-11.9 9.7-21.6 21.6-21.6s21.6 9.7 21.6 21.6S50.4 60 38.5 60H25.1v5.3zm13.4-40.4c-7.4 0-13.4 6-13.4 13.4v13.4h13.4c7.4 0 13.4-6 13.4-13.4s-6-13.4-13.4-13.4z" style="fill:#64d3ca"/></svg>